<?xml version="1.0" encoding="utf-8"?>
<!-- Generator: Adobe Illustrator 28.3.0, SVG Export Plug-In . SVG Version: 6.00 Build 0)  -->
<svg version="1.1" id="Layer_1" xmlns="http://www.w3.org/2000/svg" xmlns:xlink="http://www.w3.org/1999/xlink" x="0px" y="0px"
	 viewBox="0 0 576.6 66" style="enable-background:new 0 0 576.6 66;" xml:space="preserve">
<style type="text/css">
	.st0{fill:#231F20;}
</style>
<g>
	<path class="st0" d="M65.9,53.9c0.3-0.2,0.5-0.2,0.8,0c1.7,1.9,4.1,3.5,7.2,4.8c3.1,1.3,6.6,2,10.3,2c4.8,0,8.7-1.1,11.7-3.2
		c3-2.1,4.5-5.3,4.5-9.5c0-2.8-0.7-5-2.1-6.7c-1.4-1.7-3.3-3.1-5.8-4.2c-2.5-1.1-5.4-2.1-8.8-3c-1.9-0.5-4-1.2-6.3-1.9
		c-2.3-0.8-4.4-1.8-6.5-3.1c-2-1.3-3.6-3-4.9-5c-1.2-2-1.8-4.5-1.6-7.5c0.2-4.7,2.1-8.6,5.7-11.7c3.6-3.1,8.7-4.6,15.1-4.6
		c4.8,0,8.9,0.8,12.3,2.3c3.4,1.5,5.9,3.1,7.5,4.8c0.2,0.2,0.2,0.4,0,0.7l-3.2,3.4c-0.2,0.3-0.4,0.3-0.8,0c-1.3-1.4-3.3-2.8-6-4.2
		c-2.7-1.3-6-2-9.9-2c-4.3,0-7.8,1-10.4,2.9c-2.6,1.9-3.9,4.6-3.9,8c0,2.8,0.7,5,2.2,6.6c1.4,1.6,3.3,2.8,5.6,3.7
		c2.3,0.8,4.6,1.6,7.1,2.3c2.2,0.6,4.6,1.3,7,2.2c2.4,0.9,4.7,2,6.8,3.4c2.1,1.4,3.8,3.2,5.2,5.4c1.3,2.2,2,4.9,2,8.2
		c0,3.9-1,7.1-2.9,9.8c-1.9,2.7-4.6,4.7-8,6.1c-3.4,1.4-7.4,2.1-11.8,2.1c-4.8,0-9.1-0.8-12.9-2.3c-3.9-1.5-6.7-3.4-8.6-5.6
		c-0.1-0.2-0.1-0.4,0.1-0.7L65.9,53.9z"/>
	<path class="st0" d="M111.8,6.6c-0.4,0-0.6-0.2-0.6-0.5v-4c0-0.4,0.2-0.5,0.6-0.5h48.9c0.4,0,0.6,0.2,0.6,0.5v4
		c0,0.4-0.2,0.5-0.6,0.5h-21.3v57.3c0,0.4-0.2,0.5-0.6,0.5h-5.1c-0.4,0-0.6-0.2-0.6-0.5V6.6H111.8z"/>
	<path class="st0" d="M172.1,63.9V2.1c0-0.4,0.2-0.5,0.6-0.5h34.5c0.4,0,0.6,0.2,0.6,0.5v4c0,0.4-0.2,0.5-0.6,0.5h-28.8V28h24.5
		c0.4,0,0.6,0.2,0.6,0.5v4c0,0.4-0.2,0.5-0.6,0.5h-24.5v26.2h16.6c3.5,0,6.6-0.2,9.1-0.5c2.6-0.4,4.7-0.8,6.4-1.2
		c0.4-0.1,0.6,0.1,0.7,0.4l1,4.1c0.1,0.3,0,0.5-0.4,0.6c-3.9,1.2-9.4,1.8-16.8,1.8h-22.2C172.3,64.5,172.1,64.3,172.1,63.9z"/>
	<path class="st0" d="M222.4,63.9V2.1c0-0.4,0.2-0.5,0.6-0.5h17.6c7.4,0,12.9,1.5,16.5,4.6c3.5,3.1,5.3,7,5.3,11.9
		c0,4.6-1.4,8.5-4.1,11.6c-2.8,3.1-6.3,5.3-10.7,6.7l9.8,14.3c1.8,2.5,3.3,4.5,4.5,5.8c1.2,1.3,2.4,2.2,3.5,2.6
		c1.1,0.4,2.3,0.7,3.6,0.7c0.4,0,0.6,0.2,0.6,0.5v4c0,0.4-0.2,0.5-0.6,0.5c-2.2-0.1-4.3-0.4-6.1-1.1c-1.8-0.7-3.6-1.9-5.3-3.5
		c-1.7-1.7-3.6-3.9-5.6-6.8l-10.7-15.7c-4,0.5-8.3,0.5-12.6-0.2v26.4c0,0.4-0.2,0.5-0.6,0.5h-5.1C222.6,64.5,222.4,64.3,222.4,63.9z
		 M228.6,6.5v25.6c4.9,0.8,9.4,0.9,13.5,0.2c4.1-0.7,7.5-2.2,10-4.6c2.5-2.3,3.8-5.5,3.8-9.5c0-4.3-1.5-7.3-4.6-9.1
		c-3.1-1.8-7.1-2.7-12.1-2.7H228.6z"/>
	<path class="st0" d="M301.2,63.9l3.4-61.8c0-0.4,0.2-0.5,0.6-0.5h4c0.3,0,0.5,0.1,0.7,0.4L333,47.8l23.1-45.9
		c0.1-0.2,0.4-0.4,0.7-0.4h4c0.4,0,0.6,0.2,0.6,0.5l3.4,61.8c0,0.4-0.2,0.5-0.6,0.5h-5.1c-0.4,0-0.6-0.2-0.6-0.5l-2.2-51l-2.6,6.2
		l-18.6,36.7c-0.1,0.2-0.3,0.4-0.7,0.4h-2.9c-0.4,0-0.6-0.1-0.7-0.4L312.3,19l-2.7-6.4l-2.1,51.3c0,0.4-0.2,0.5-0.6,0.5h-5.1
		C301.4,64.5,301.2,64.3,301.2,63.9z"/>
	<path class="st0" d="M403.1,65.8c-8,0-14.1-2.1-18.3-6.2c-4.2-4.1-6.4-9.9-6.4-17.4V2.1c0-0.4,0.2-0.5,0.6-0.5h5.2
		c0.4,0,0.6,0.2,0.6,0.5v39.3c0,6.3,1.5,11,4.5,14.3c3,3.3,7.7,4.9,14,4.9c6.1,0,10.7-1.6,13.8-4.9c3.1-3.3,4.7-8,4.7-14.3V2.1
		c0-0.4,0.2-0.5,0.6-0.5h5.1c0.4,0,0.6,0.2,0.6,0.5v40.2c0,7.5-2.2,13.3-6.6,17.4C417.1,63.8,411,65.8,403.1,65.8z"/>
	<path class="st0" d="M444.7,64.5c-0.4,0-0.6-0.2-0.6-0.5V2.1c0-0.4,0.2-0.5,0.6-0.5h5.1c0.4,0,0.6,0.2,0.6,0.5v61.8
		c0,0.4-0.2,0.5-0.6,0.5H444.7z"/>
	<path class="st0" d="M467,63.9V2.1c0-0.4,0.2-0.5,0.6-0.5h17.6c7.4,0,12.9,1.5,16.5,4.6c3.5,3.1,5.3,7,5.3,11.9
		c0,4.6-1.4,8.5-4.1,11.6c-2.8,3.1-6.3,5.3-10.7,6.7l9.8,14.3c1.8,2.5,3.3,4.5,4.5,5.8c1.2,1.3,2.4,2.2,3.5,2.6
		c1.1,0.4,2.3,0.7,3.6,0.7c0.4,0,0.6,0.2,0.6,0.5v4c0,0.4-0.2,0.5-0.6,0.5c-2.2-0.1-4.3-0.4-6.1-1.1c-1.8-0.7-3.6-1.9-5.3-3.5
		c-1.7-1.7-3.6-3.9-5.6-6.8l-10.7-15.7c-4,0.5-8.3,0.5-12.6-0.2v26.4c0,0.4-0.2,0.5-0.6,0.5h-5.1C467.2,64.5,467,64.3,467,63.9z
		 M473.2,6.5v25.6c4.9,0.8,9.4,0.9,13.5,0.2c4.1-0.7,7.5-2.2,10-4.6c2.5-2.3,3.8-5.5,3.8-9.5c0-4.3-1.5-7.3-4.6-9.1
		c-3.1-1.8-7.1-2.7-12.1-2.7H473.2z"/>
</g>
</svg>
