<?xml version="1.0" encoding="utf-8"?>
<!-- Generator: Adobe Illustrator 28.3.0, SVG Export Plug-In . SVG Version: 6.00 Build 0)  -->
<svg version="1.1" id="Layer_1" xmlns="http://www.w3.org/2000/svg" xmlns:xlink="http://www.w3.org/1999/xlink" x="0px" y="0px"
	 viewBox="0 0 576.62 65.97" style="enable-background:new 0 0 576.62 65.97;" xml:space="preserve">
<g>
	<path d="M3.5,45.03h9.91c0.26,6.41,4.79,13.33,21.28,13.33c12.9,0,18.97-3.76,18.97-10.68c0-7.18-3.85-9.74-21.19-12.13
		C11.54,32.73,5.9,27.09,5.9,17c0-9.4,8.03-17,27.51-17c19.74,0,28.37,8.54,29.31,20.34h-9.57c-0.6-6.58-5.04-12.73-19.4-12.73
		c-13.16,0-17.69,4.53-17.69,9.57c0,5.81,3.33,8.89,18.2,10.77c24.1,3.08,29.57,9.14,29.57,19.57c0,12.22-10.51,18.46-29.14,18.46
		C13.33,65.97,4.02,56.82,3.5,45.03z"/>
	<path d="M94.08,64.69V9.23H67.59V1.2h63.15v8.03h-26.49v55.46H94.08z"/>
	<path d="M140.05,64.69V1.2h54.17v8.03h-44.01v19.14h40.5v7.43h-40.5v20.94h44.52v7.95H140.05z"/>
	<path d="M206.71,64.69V1.2h34.35c17.43,0,25.12,6.84,25.12,18.12c0,9.48-5.81,15.38-14.95,17v0.09c6.58,1.28,9.83,4.79,11.36,12.56
		l1.11,5.64c1.03,4.96,1.97,7.69,3.16,10.08h-10.34c-0.94-1.71-1.71-4.36-2.82-9.66l-1.28-6.07c-1.2-5.47-4.61-8.2-15.47-8.2h-20.08
		v23.93H206.71z M216.88,33.07h22.47c10.17,0,16.58-3.67,16.58-12.65v-0.17c0-6.75-4.19-11.11-15.04-11.11h-24.01V33.07z"/>
	<path d="M311.55,64.69V1.2h12.65l25.72,42.55l0.85,2.05h0.09l0.94-2.05L377.52,1.2h12.65v63.49h-9.83V15.89l0.08-2.56l-0.85,1.97
		L355.3,54.86h-8.89L322.15,15.3l-0.85-1.97l0.08,2.56v48.79H311.55z"/>
	<path d="M405.64,37.51V1.2h10.17v36.23c0,13.76,7.35,20.59,21.45,20.59c14.1,0,21.45-6.84,21.45-20.59V1.2h10.17v36.4
		c0,18.71-9.66,28.37-31.7,28.37C415.38,65.97,405.64,56.4,405.64,37.51z"/>
	<path d="M484.25,64.69V1.2h10.17v63.49H484.25z"/>
	<path d="M512.19,64.69V1.2h34.35c17.43,0,25.12,6.84,25.12,18.12c0,9.48-5.81,15.38-14.95,17v0.09c6.58,1.28,9.83,4.79,11.37,12.56
		l1.11,5.64c1.03,4.96,1.96,7.69,3.16,10.08h-10.34c-0.94-1.71-1.71-4.36-2.82-9.66l-1.28-6.07c-1.2-5.47-4.62-8.2-15.47-8.2h-20.08
		v23.93H512.19z M522.36,33.07h22.47c10.17,0,16.58-3.67,16.58-12.65v-0.17c0-6.75-4.19-11.11-15.04-11.11h-24.01V33.07z"/>
</g>
</svg>
